<mxfile host="Electron" agent="Mozilla/5.0 (Windows NT 10.0; Win64; x64) AppleWebKit/537.36 (KHTML, like Gecko) draw.io/24.7.17 Chrome/128.0.6613.36 Electron/32.0.1 Safari/537.36" version="24.7.17">
  <diagram name="PÃ¡gina-1" id="pweJRx5QPmdleeNw7f2O">
    <mxGraphModel dx="2501" dy="854" grid="1" gridSize="10" guides="1" tooltips="1" connect="1" arrows="1" fold="1" page="1" pageScale="1" pageWidth="827" pageHeight="1169" math="0" shadow="0">
      <root>
        <mxCell id="0" />
        <mxCell id="1" parent="0" />
        <mxCell id="CMIFHoFZZppcYvuTfOI5-1" value="&lt;b&gt;&lt;font style=&quot;font-size: 36px;&quot;&gt;DIAGRAMA ENTIDAD RELACION&amp;nbsp;&lt;/font&gt;&lt;/b&gt;" style="text;html=1;align=center;verticalAlign=middle;whiteSpace=wrap;rounded=0;" vertex="1" parent="1">
          <mxGeometry x="-60" y="60" width="700" height="60" as="geometry" />
        </mxCell>
        <mxCell id="CMIFHoFZZppcYvuTfOI5-2" value="CLIENTES" style="rounded=0;whiteSpace=wrap;html=1;" vertex="1" parent="1">
          <mxGeometry x="-70" y="170" width="120" height="60" as="geometry" />
        </mxCell>
        <mxCell id="CMIFHoFZZppcYvuTfOI5-3" value="PROVEEDORES" style="rounded=0;whiteSpace=wrap;html=1;" vertex="1" parent="1">
          <mxGeometry x="1020" y="430" width="120" height="60" as="geometry" />
        </mxCell>
        <mxCell id="CMIFHoFZZppcYvuTfOI5-4" value="CONTRATOS" style="rounded=0;whiteSpace=wrap;html=1;" vertex="1" parent="1">
          <mxGeometry x="10" y="480" width="120" height="60" as="geometry" />
        </mxCell>
        <mxCell id="CMIFHoFZZppcYvuTfOI5-5" value="COMPRAS" style="rounded=0;whiteSpace=wrap;html=1;" vertex="1" parent="1">
          <mxGeometry x="1020" y="780" width="120" height="60" as="geometry" />
        </mxCell>
        <mxCell id="CMIFHoFZZppcYvuTfOI5-6" value="PROYECTOS" style="rounded=0;whiteSpace=wrap;html=1;" vertex="1" parent="1">
          <mxGeometry x="-430" y="490" width="120" height="60" as="geometry" />
        </mxCell>
        <mxCell id="CMIFHoFZZppcYvuTfOI5-8" value="VENTAS" style="rounded=0;whiteSpace=wrap;html=1;" vertex="1" parent="1">
          <mxGeometry x="250" y="410" width="120" height="60" as="geometry" />
        </mxCell>
        <mxCell id="CMIFHoFZZppcYvuTfOI5-9" value="DETALLECOMPRAS" style="rounded=0;whiteSpace=wrap;html=1;" vertex="1" parent="1">
          <mxGeometry x="930" y="1080" width="120" height="60" as="geometry" />
        </mxCell>
        <mxCell id="CMIFHoFZZppcYvuTfOI5-10" value="DETALLEVENTAS" style="rounded=0;whiteSpace=wrap;html=1;" vertex="1" parent="1">
          <mxGeometry x="250" y="690" width="120" height="60" as="geometry" />
        </mxCell>
        <mxCell id="CMIFHoFZZppcYvuTfOI5-11" value="PRODUCTOS&lt;div&gt;&lt;br&gt;&lt;/div&gt;" style="rounded=0;whiteSpace=wrap;html=1;" vertex="1" parent="1">
          <mxGeometry x="500" y="900" width="120" height="60" as="geometry" />
        </mxCell>
        <mxCell id="CMIFHoFZZppcYvuTfOI5-12" value="FACTURAS" style="rounded=0;whiteSpace=wrap;html=1;" vertex="1" parent="1">
          <mxGeometry x="690" y="420" width="120" height="60" as="geometry" />
        </mxCell>
        <mxCell id="CMIFHoFZZppcYvuTfOI5-14" value="FIRMAN" style="rhombus;whiteSpace=wrap;html=1;" vertex="1" parent="1">
          <mxGeometry x="50" y="330" width="80" height="80" as="geometry" />
        </mxCell>
        <mxCell id="CMIFHoFZZppcYvuTfOI5-20" value="" style="fontSize=12;html=1;endArrow=ERoneToMany;rounded=0;entryX=0.5;entryY=0;entryDx=0;entryDy=0;exitX=0.608;exitY=1.017;exitDx=0;exitDy=0;exitPerimeter=0;" edge="1" parent="1" source="CMIFHoFZZppcYvuTfOI5-2" target="CMIFHoFZZppcYvuTfOI5-14">
          <mxGeometry width="100" height="100" relative="1" as="geometry">
            <mxPoint x="-20" y="240" as="sourcePoint" />
            <mxPoint x="-20" y="310" as="targetPoint" />
          </mxGeometry>
        </mxCell>
        <mxCell id="CMIFHoFZZppcYvuTfOI5-36" value="1 a N" style="edgeLabel;html=1;align=center;verticalAlign=middle;resizable=0;points=[];" vertex="1" connectable="0" parent="CMIFHoFZZppcYvuTfOI5-20">
          <mxGeometry x="-0.0308" y="-1" relative="1" as="geometry">
            <mxPoint as="offset" />
          </mxGeometry>
        </mxCell>
        <mxCell id="CMIFHoFZZppcYvuTfOI5-21" value="" style="fontSize=12;html=1;endArrow=ERoneToMany;rounded=0;entryX=0.592;entryY=0;entryDx=0;entryDy=0;entryPerimeter=0;exitX=0.5;exitY=1;exitDx=0;exitDy=0;" edge="1" parent="1" source="CMIFHoFZZppcYvuTfOI5-14">
          <mxGeometry width="100" height="100" relative="1" as="geometry">
            <mxPoint x="79.47999999999999" y="410" as="sourcePoint" />
            <mxPoint x="70.51999999999995" y="480" as="targetPoint" />
          </mxGeometry>
        </mxCell>
        <mxCell id="CMIFHoFZZppcYvuTfOI5-38" value="1 a N" style="edgeLabel;html=1;align=center;verticalAlign=middle;resizable=0;points=[];" vertex="1" connectable="0" parent="CMIFHoFZZppcYvuTfOI5-21">
          <mxGeometry x="-0.3116" relative="1" as="geometry">
            <mxPoint as="offset" />
          </mxGeometry>
        </mxCell>
        <mxCell id="CMIFHoFZZppcYvuTfOI5-22" value="AL COMPRAR SE REALIZAN&amp;nbsp;" style="strokeWidth=2;html=1;shape=mxgraph.flowchart.decision;whiteSpace=wrap;" vertex="1" parent="1">
          <mxGeometry x="230" y="210" width="140" height="100" as="geometry" />
        </mxCell>
        <mxCell id="CMIFHoFZZppcYvuTfOI5-23" value="TIENEN" style="strokeWidth=2;html=1;shape=mxgraph.flowchart.decision;whiteSpace=wrap;" vertex="1" parent="1">
          <mxGeometry x="260" y="530" width="100" height="100" as="geometry" />
        </mxCell>
        <mxCell id="CMIFHoFZZppcYvuTfOI5-24" value="" style="fontSize=12;html=1;endArrow=ERoneToMany;rounded=0;entryX=0.5;entryY=0;entryDx=0;entryDy=0;exitX=0.5;exitY=1;exitDx=0;exitDy=0;exitPerimeter=0;" edge="1" parent="1" source="CMIFHoFZZppcYvuTfOI5-22" target="CMIFHoFZZppcYvuTfOI5-8">
          <mxGeometry width="100" height="100" relative="1" as="geometry">
            <mxPoint x="420" y="244" as="sourcePoint" />
            <mxPoint x="350" y="400" as="targetPoint" />
          </mxGeometry>
        </mxCell>
        <mxCell id="CMIFHoFZZppcYvuTfOI5-40" value="1 a N" style="edgeLabel;html=1;align=center;verticalAlign=middle;resizable=0;points=[];" vertex="1" connectable="0" parent="CMIFHoFZZppcYvuTfOI5-24">
          <mxGeometry x="-0.5333" relative="1" as="geometry">
            <mxPoint as="offset" />
          </mxGeometry>
        </mxCell>
        <mxCell id="CMIFHoFZZppcYvuTfOI5-26" value="" style="fontSize=12;html=1;endArrow=ERoneToMany;rounded=0;entryX=0;entryY=0.5;entryDx=0;entryDy=0;entryPerimeter=0;exitX=1.025;exitY=0.367;exitDx=0;exitDy=0;exitPerimeter=0;" edge="1" parent="1" source="CMIFHoFZZppcYvuTfOI5-2" target="CMIFHoFZZppcYvuTfOI5-22">
          <mxGeometry width="100" height="100" relative="1" as="geometry">
            <mxPoint x="140" y="230" as="sourcePoint" />
            <mxPoint x="240" y="130" as="targetPoint" />
          </mxGeometry>
        </mxCell>
        <mxCell id="CMIFHoFZZppcYvuTfOI5-39" value="1 a N" style="edgeLabel;html=1;align=center;verticalAlign=middle;resizable=0;points=[];" vertex="1" connectable="0" parent="CMIFHoFZZppcYvuTfOI5-26">
          <mxGeometry x="-0.3003" y="1" relative="1" as="geometry">
            <mxPoint as="offset" />
          </mxGeometry>
        </mxCell>
        <mxCell id="CMIFHoFZZppcYvuTfOI5-27" value="" style="fontSize=12;html=1;endArrow=ERoneToMany;rounded=0;entryX=0.5;entryY=0;entryDx=0;entryDy=0;entryPerimeter=0;exitX=0.5;exitY=1;exitDx=0;exitDy=0;" edge="1" parent="1" source="CMIFHoFZZppcYvuTfOI5-8" target="CMIFHoFZZppcYvuTfOI5-23">
          <mxGeometry width="100" height="100" relative="1" as="geometry">
            <mxPoint x="160" y="710" as="sourcePoint" />
            <mxPoint x="260" y="610" as="targetPoint" />
          </mxGeometry>
        </mxCell>
        <mxCell id="CMIFHoFZZppcYvuTfOI5-34" value="1 a N" style="edgeLabel;html=1;align=center;verticalAlign=middle;resizable=0;points=[];" vertex="1" connectable="0" parent="CMIFHoFZZppcYvuTfOI5-27">
          <mxGeometry x="-0.0667" y="-1" relative="1" as="geometry">
            <mxPoint as="offset" />
          </mxGeometry>
        </mxCell>
        <mxCell id="CMIFHoFZZppcYvuTfOI5-28" value="" style="fontSize=12;html=1;endArrow=ERoneToMany;rounded=0;entryX=0.575;entryY=-0.05;entryDx=0;entryDy=0;entryPerimeter=0;" edge="1" parent="1" target="CMIFHoFZZppcYvuTfOI5-10">
          <mxGeometry width="100" height="100" relative="1" as="geometry">
            <mxPoint x="310" y="630" as="sourcePoint" />
            <mxPoint x="410" y="530" as="targetPoint" />
          </mxGeometry>
        </mxCell>
        <mxCell id="CMIFHoFZZppcYvuTfOI5-35" value="1 a N" style="edgeLabel;html=1;align=center;verticalAlign=middle;resizable=0;points=[];" vertex="1" connectable="0" parent="CMIFHoFZZppcYvuTfOI5-28">
          <mxGeometry x="-0.2798" y="-1" relative="1" as="geometry">
            <mxPoint as="offset" />
          </mxGeometry>
        </mxCell>
        <mxCell id="CMIFHoFZZppcYvuTfOI5-29" value="SE REALIZA" style="strokeWidth=2;html=1;shape=mxgraph.flowchart.decision;whiteSpace=wrap;" vertex="1" parent="1">
          <mxGeometry x="510" y="400" width="100" height="100" as="geometry" />
        </mxCell>
        <mxCell id="CMIFHoFZZppcYvuTfOI5-30" value="" style="edgeStyle=entityRelationEdgeStyle;fontSize=12;html=1;endArrow=ERmandOne;startArrow=ERmandOne;rounded=0;entryX=0;entryY=0.5;entryDx=0;entryDy=0;entryPerimeter=0;" edge="1" parent="1" target="CMIFHoFZZppcYvuTfOI5-29">
          <mxGeometry width="100" height="100" relative="1" as="geometry">
            <mxPoint x="370" y="440" as="sourcePoint" />
            <mxPoint x="520" y="420" as="targetPoint" />
          </mxGeometry>
        </mxCell>
        <mxCell id="CMIFHoFZZppcYvuTfOI5-33" value="1 a 1" style="edgeLabel;html=1;align=center;verticalAlign=middle;resizable=0;points=[];" vertex="1" connectable="0" parent="CMIFHoFZZppcYvuTfOI5-30">
          <mxGeometry x="-0.0582" relative="1" as="geometry">
            <mxPoint as="offset" />
          </mxGeometry>
        </mxCell>
        <mxCell id="CMIFHoFZZppcYvuTfOI5-31" value="" style="edgeStyle=entityRelationEdgeStyle;fontSize=12;html=1;endArrow=ERmandOne;startArrow=ERmandOne;rounded=0;entryX=0;entryY=0.5;entryDx=0;entryDy=0;" edge="1" parent="1" target="CMIFHoFZZppcYvuTfOI5-12">
          <mxGeometry width="100" height="100" relative="1" as="geometry">
            <mxPoint x="610" y="450" as="sourcePoint" />
            <mxPoint x="710" y="350" as="targetPoint" />
          </mxGeometry>
        </mxCell>
        <mxCell id="CMIFHoFZZppcYvuTfOI5-32" value="1 a 1" style="edgeLabel;html=1;align=center;verticalAlign=middle;resizable=0;points=[];" vertex="1" connectable="0" parent="CMIFHoFZZppcYvuTfOI5-31">
          <mxGeometry x="0.05" y="-3" relative="1" as="geometry">
            <mxPoint as="offset" />
          </mxGeometry>
        </mxCell>
        <mxCell id="CMIFHoFZZppcYvuTfOI5-41" value="PAGOS" style="rounded=0;whiteSpace=wrap;html=1;" vertex="1" parent="1">
          <mxGeometry x="-240" y="500" width="120" height="60" as="geometry" />
        </mxCell>
        <mxCell id="CMIFHoFZZppcYvuTfOI5-42" value="REALIZAN" style="strokeWidth=2;html=1;shape=mxgraph.flowchart.decision;whiteSpace=wrap;" vertex="1" parent="1">
          <mxGeometry x="-230" y="300" width="100" height="100" as="geometry" />
        </mxCell>
        <mxCell id="CMIFHoFZZppcYvuTfOI5-43" value="" style="fontSize=12;html=1;endArrow=ERzeroToMany;startArrow=ERzeroToOne;rounded=0;entryX=0.5;entryY=0;entryDx=0;entryDy=0;entryPerimeter=0;exitX=0.25;exitY=1;exitDx=0;exitDy=0;" edge="1" parent="1" source="CMIFHoFZZppcYvuTfOI5-2" target="CMIFHoFZZppcYvuTfOI5-42">
          <mxGeometry width="100" height="100" relative="1" as="geometry">
            <mxPoint x="-20" y="220" as="sourcePoint" />
            <mxPoint x="-210" y="290" as="targetPoint" />
          </mxGeometry>
        </mxCell>
        <mxCell id="CMIFHoFZZppcYvuTfOI5-44" value="&lt;span style=&quot;color: rgba(0, 0, 0, 0); font-family: monospace; font-size: 0px; text-align: start; background-color: rgb(27, 29, 30);&quot;&gt;%3CmxGraphModel%3E%3Croot%3E%3CmxCell%20id%3D%220%22%2F%3E%3CmxCell%20id%3D%221%22%20parent%3D%220%22%2F%3E%3CmxCell%20id%3D%222%22%20value%3D%22PROYECTOS%22%20style%3D%22rounded%3D0%3BwhiteSpace%3Dwrap%3Bhtml%3D1%3B%22%20vertex%3D%221%22%20parent%3D%221%22%3E%3CmxGeometry%20x%3D%22430%22%20y%3D%22810%22%20width%3D%22120%22%20height%3D%2260%22%20as%3D%22geometry%22%2F%3E%3C%2FmxCell%3E%3C%2Froot%3E%3C%2FmxGraphModel%3E&lt;/span&gt;" style="edgeLabel;html=1;align=center;verticalAlign=middle;resizable=0;points=[];" vertex="1" connectable="0" parent="CMIFHoFZZppcYvuTfOI5-43">
          <mxGeometry x="-0.0095" y="2" relative="1" as="geometry">
            <mxPoint as="offset" />
          </mxGeometry>
        </mxCell>
        <mxCell id="CMIFHoFZZppcYvuTfOI5-45" value="1 a N" style="edgeLabel;html=1;align=center;verticalAlign=middle;resizable=0;points=[];" vertex="1" connectable="0" parent="CMIFHoFZZppcYvuTfOI5-43">
          <mxGeometry x="0.0038" y="-3" relative="1" as="geometry">
            <mxPoint as="offset" />
          </mxGeometry>
        </mxCell>
        <mxCell id="CMIFHoFZZppcYvuTfOI5-46" value="" style="fontSize=12;html=1;endArrow=ERzeroToMany;startArrow=ERzeroToOne;rounded=0;entryX=0.567;entryY=-0.05;entryDx=0;entryDy=0;entryPerimeter=0;" edge="1" parent="1" target="CMIFHoFZZppcYvuTfOI5-41">
          <mxGeometry width="100" height="100" relative="1" as="geometry">
            <mxPoint x="-180" y="400" as="sourcePoint" />
            <mxPoint x="-80" y="300" as="targetPoint" />
          </mxGeometry>
        </mxCell>
        <mxCell id="CMIFHoFZZppcYvuTfOI5-47" value="1 a N" style="edgeLabel;html=1;align=center;verticalAlign=middle;resizable=0;points=[];" vertex="1" connectable="0" parent="CMIFHoFZZppcYvuTfOI5-46">
          <mxGeometry x="-0.3149" y="-3" relative="1" as="geometry">
            <mxPoint as="offset" />
          </mxGeometry>
        </mxCell>
        <mxCell id="CMIFHoFZZppcYvuTfOI5-48" value="SE INSCRIBEN EN" style="strokeWidth=2;html=1;shape=mxgraph.flowchart.decision;whiteSpace=wrap;" vertex="1" parent="1">
          <mxGeometry x="-430" y="290" width="120" height="110" as="geometry" />
        </mxCell>
        <mxCell id="CMIFHoFZZppcYvuTfOI5-49" value="" style="fontSize=12;html=1;endArrow=ERzeroToMany;startArrow=ERzeroToOne;rounded=0;entryX=0.5;entryY=0;entryDx=0;entryDy=0;" edge="1" parent="1" target="CMIFHoFZZppcYvuTfOI5-6">
          <mxGeometry width="100" height="100" relative="1" as="geometry">
            <mxPoint x="-379.02000000000004" y="400" as="sourcePoint" />
            <mxPoint x="-360.9800000000001" y="497" as="targetPoint" />
          </mxGeometry>
        </mxCell>
        <mxCell id="CMIFHoFZZppcYvuTfOI5-50" value="1 a N" style="edgeLabel;html=1;align=center;verticalAlign=middle;resizable=0;points=[];" vertex="1" connectable="0" parent="CMIFHoFZZppcYvuTfOI5-49">
          <mxGeometry x="-0.3333" y="-1" relative="1" as="geometry">
            <mxPoint as="offset" />
          </mxGeometry>
        </mxCell>
        <mxCell id="CMIFHoFZZppcYvuTfOI5-52" value="" style="fontSize=12;html=1;endArrow=ERzeroToMany;startArrow=ERzeroToOne;rounded=0;entryX=0.5;entryY=0;entryDx=0;entryDy=0;entryPerimeter=0;exitX=0;exitY=0.5;exitDx=0;exitDy=0;" edge="1" parent="1" source="CMIFHoFZZppcYvuTfOI5-2" target="CMIFHoFZZppcYvuTfOI5-48">
          <mxGeometry width="100" height="100" relative="1" as="geometry">
            <mxPoint x="-90" y="190" as="sourcePoint" />
            <mxPoint x="-140" y="320" as="targetPoint" />
            <Array as="points">
              <mxPoint x="-250" y="250" />
            </Array>
          </mxGeometry>
        </mxCell>
        <mxCell id="CMIFHoFZZppcYvuTfOI5-54" value="1 a N" style="edgeLabel;html=1;align=center;verticalAlign=middle;resizable=0;points=[];" vertex="1" connectable="0" parent="CMIFHoFZZppcYvuTfOI5-52">
          <mxGeometry x="0.2833" y="1" relative="1" as="geometry">
            <mxPoint as="offset" />
          </mxGeometry>
        </mxCell>
        <mxCell id="CMIFHoFZZppcYvuTfOI5-56" value="ORDENES DE TRABAJO" style="rounded=0;whiteSpace=wrap;html=1;" vertex="1" parent="1">
          <mxGeometry x="-433" y="910" width="120" height="60" as="geometry" />
        </mxCell>
        <mxCell id="CMIFHoFZZppcYvuTfOI5-57" value="GENERAN&amp;nbsp;" style="strokeWidth=2;html=1;shape=mxgraph.flowchart.decision;whiteSpace=wrap;" vertex="1" parent="1">
          <mxGeometry x="-413" y="670" width="100" height="100" as="geometry" />
        </mxCell>
        <mxCell id="CMIFHoFZZppcYvuTfOI5-58" value="" style="fontSize=12;html=1;endArrow=ERzeroToMany;startArrow=ERzeroToOne;rounded=0;entryX=0.5;entryY=0;entryDx=0;entryDy=0;entryPerimeter=0;" edge="1" parent="1" target="CMIFHoFZZppcYvuTfOI5-57">
          <mxGeometry width="100" height="100" relative="1" as="geometry">
            <mxPoint x="-370" y="550" as="sourcePoint" />
            <mxPoint x="-270" y="450" as="targetPoint" />
          </mxGeometry>
        </mxCell>
        <mxCell id="CMIFHoFZZppcYvuTfOI5-59" value="1 a N" style="edgeLabel;html=1;align=center;verticalAlign=middle;resizable=0;points=[];" vertex="1" connectable="0" parent="CMIFHoFZZppcYvuTfOI5-58">
          <mxGeometry x="-0.0669" relative="1" as="geometry">
            <mxPoint as="offset" />
          </mxGeometry>
        </mxCell>
        <mxCell id="CMIFHoFZZppcYvuTfOI5-60" value="" style="fontSize=12;html=1;endArrow=ERzeroToMany;startArrow=ERzeroToOne;rounded=0;entryX=0.567;entryY=0;entryDx=0;entryDy=0;entryPerimeter=0;exitX=0.5;exitY=1;exitDx=0;exitDy=0;exitPerimeter=0;" edge="1" parent="1" source="CMIFHoFZZppcYvuTfOI5-57" target="CMIFHoFZZppcYvuTfOI5-56">
          <mxGeometry width="100" height="100" relative="1" as="geometry">
            <mxPoint x="-380" y="770" as="sourcePoint" />
            <mxPoint x="-280" y="670" as="targetPoint" />
          </mxGeometry>
        </mxCell>
        <mxCell id="CMIFHoFZZppcYvuTfOI5-61" value="1 a N" style="edgeLabel;html=1;align=center;verticalAlign=middle;resizable=0;points=[];" vertex="1" connectable="0" parent="CMIFHoFZZppcYvuTfOI5-60">
          <mxGeometry x="-0.1955" y="5" relative="1" as="geometry">
            <mxPoint as="offset" />
          </mxGeometry>
        </mxCell>
        <mxCell id="CMIFHoFZZppcYvuTfOI5-62" value="INSTALADORES" style="rounded=0;whiteSpace=wrap;html=1;" vertex="1" parent="1">
          <mxGeometry x="30" y="910" width="120" height="60" as="geometry" />
        </mxCell>
        <mxCell id="CMIFHoFZZppcYvuTfOI5-63" value="RECIBEN" style="strokeWidth=2;html=1;shape=mxgraph.flowchart.decision;whiteSpace=wrap;" vertex="1" parent="1">
          <mxGeometry x="-190" y="900" width="100" height="100" as="geometry" />
        </mxCell>
        <mxCell id="CMIFHoFZZppcYvuTfOI5-64" value="" style="fontSize=12;html=1;endArrow=ERzeroToMany;startArrow=ERzeroToOne;rounded=0;entryX=1;entryY=0.5;entryDx=0;entryDy=0;entryPerimeter=0;exitX=0.042;exitY=0.65;exitDx=0;exitDy=0;exitPerimeter=0;" edge="1" parent="1" source="CMIFHoFZZppcYvuTfOI5-62" target="CMIFHoFZZppcYvuTfOI5-63">
          <mxGeometry width="100" height="100" relative="1" as="geometry">
            <mxPoint x="-310" y="940" as="sourcePoint" />
            <mxPoint x="-210" y="840" as="targetPoint" />
          </mxGeometry>
        </mxCell>
        <mxCell id="CMIFHoFZZppcYvuTfOI5-65" value="1 a N" style="edgeLabel;html=1;align=center;verticalAlign=middle;resizable=0;points=[];" vertex="1" connectable="0" parent="CMIFHoFZZppcYvuTfOI5-64">
          <mxGeometry x="0.0524" y="-2" relative="1" as="geometry">
            <mxPoint as="offset" />
          </mxGeometry>
        </mxCell>
        <mxCell id="CMIFHoFZZppcYvuTfOI5-66" value="" style="fontSize=12;html=1;endArrow=ERzeroToMany;startArrow=ERzeroToOne;rounded=0;" edge="1" parent="1">
          <mxGeometry width="100" height="100" relative="1" as="geometry">
            <mxPoint x="-183" y="947.5" as="sourcePoint" />
            <mxPoint x="-313" y="932.5" as="targetPoint" />
          </mxGeometry>
        </mxCell>
        <mxCell id="CMIFHoFZZppcYvuTfOI5-67" value="1 a N" style="edgeLabel;html=1;align=center;verticalAlign=middle;resizable=0;points=[];" vertex="1" connectable="0" parent="CMIFHoFZZppcYvuTfOI5-66">
          <mxGeometry x="0.0607" y="-4" relative="1" as="geometry">
            <mxPoint as="offset" />
          </mxGeometry>
        </mxCell>
        <mxCell id="CMIFHoFZZppcYvuTfOI5-68" value="RECIBEN ORDEN DE&amp;nbsp;" style="strokeWidth=2;html=1;shape=mxgraph.flowchart.decision;whiteSpace=wrap;" vertex="1" parent="1">
          <mxGeometry x="1040" y="560" width="100" height="100" as="geometry" />
        </mxCell>
        <mxCell id="CMIFHoFZZppcYvuTfOI5-69" value="" style="fontSize=12;html=1;endArrow=ERzeroToMany;startArrow=ERzeroToOne;rounded=0;entryX=0.5;entryY=0;entryDx=0;entryDy=0;entryPerimeter=0;exitX=0.592;exitY=1.05;exitDx=0;exitDy=0;exitPerimeter=0;" edge="1" parent="1" source="CMIFHoFZZppcYvuTfOI5-3" target="CMIFHoFZZppcYvuTfOI5-68">
          <mxGeometry width="100" height="100" relative="1" as="geometry">
            <mxPoint x="1070" y="490" as="sourcePoint" />
            <mxPoint x="1170" y="390" as="targetPoint" />
          </mxGeometry>
        </mxCell>
        <mxCell id="CMIFHoFZZppcYvuTfOI5-70" value="1 a N" style="edgeLabel;html=1;align=center;verticalAlign=middle;resizable=0;points=[];" vertex="1" connectable="0" parent="CMIFHoFZZppcYvuTfOI5-69">
          <mxGeometry x="0.0147" relative="1" as="geometry">
            <mxPoint as="offset" />
          </mxGeometry>
        </mxCell>
        <mxCell id="CMIFHoFZZppcYvuTfOI5-71" value="" style="fontSize=12;html=1;endArrow=ERzeroToMany;startArrow=ERzeroToOne;rounded=0;entryX=0.625;entryY=0.017;entryDx=0;entryDy=0;entryPerimeter=0;" edge="1" parent="1" target="CMIFHoFZZppcYvuTfOI5-5">
          <mxGeometry width="100" height="100" relative="1" as="geometry">
            <mxPoint x="1090" y="660" as="sourcePoint" />
            <mxPoint x="1180" y="560" as="targetPoint" />
            <Array as="points">
              <mxPoint x="1090" y="760" />
            </Array>
          </mxGeometry>
        </mxCell>
        <mxCell id="CMIFHoFZZppcYvuTfOI5-72" value="1 a N" style="edgeLabel;html=1;align=center;verticalAlign=middle;resizable=0;points=[];" vertex="1" connectable="0" parent="CMIFHoFZZppcYvuTfOI5-71">
          <mxGeometry x="-0.2316" y="2" relative="1" as="geometry">
            <mxPoint as="offset" />
          </mxGeometry>
        </mxCell>
        <mxCell id="CMIFHoFZZppcYvuTfOI5-73" value="CONTIENEN" style="strokeWidth=2;html=1;shape=mxgraph.flowchart.decision;whiteSpace=wrap;" vertex="1" parent="1">
          <mxGeometry x="1090" y="950" width="100" height="100" as="geometry" />
        </mxCell>
        <mxCell id="CMIFHoFZZppcYvuTfOI5-74" value="" style="fontSize=12;html=1;endArrow=ERzeroToMany;startArrow=ERzeroToOne;rounded=0;entryX=0.5;entryY=0;entryDx=0;entryDy=0;entryPerimeter=0;exitX=0.417;exitY=0.95;exitDx=0;exitDy=0;exitPerimeter=0;" edge="1" parent="1" source="CMIFHoFZZppcYvuTfOI5-5" target="CMIFHoFZZppcYvuTfOI5-73">
          <mxGeometry width="100" height="100" relative="1" as="geometry">
            <mxPoint x="1060" y="850" as="sourcePoint" />
            <mxPoint x="1160" y="750" as="targetPoint" />
          </mxGeometry>
        </mxCell>
        <mxCell id="CMIFHoFZZppcYvuTfOI5-75" value="1 a N" style="edgeLabel;html=1;align=center;verticalAlign=middle;resizable=0;points=[];" vertex="1" connectable="0" parent="CMIFHoFZZppcYvuTfOI5-74">
          <mxGeometry x="0.07" y="3" relative="1" as="geometry">
            <mxPoint as="offset" />
          </mxGeometry>
        </mxCell>
        <mxCell id="CMIFHoFZZppcYvuTfOI5-78" value="CONTIENE" style="strokeWidth=2;html=1;shape=mxgraph.flowchart.decision;whiteSpace=wrap;" vertex="1" parent="1">
          <mxGeometry x="510" y="680" width="100" height="100" as="geometry" />
        </mxCell>
        <mxCell id="CMIFHoFZZppcYvuTfOI5-79" value="" style="fontSize=12;html=1;endArrow=ERzeroToMany;startArrow=ERzeroToOne;rounded=0;entryX=0;entryY=0.5;entryDx=0;entryDy=0;entryPerimeter=0;exitX=1;exitY=0.5;exitDx=0;exitDy=0;" edge="1" parent="1" source="CMIFHoFZZppcYvuTfOI5-10" target="CMIFHoFZZppcYvuTfOI5-78">
          <mxGeometry width="100" height="100" relative="1" as="geometry">
            <mxPoint x="380" y="720" as="sourcePoint" />
            <mxPoint x="460" y="620" as="targetPoint" />
            <Array as="points">
              <mxPoint x="430" y="720" />
            </Array>
          </mxGeometry>
        </mxCell>
        <mxCell id="CMIFHoFZZppcYvuTfOI5-80" value="1 a N" style="edgeLabel;html=1;align=center;verticalAlign=middle;resizable=0;points=[];" vertex="1" connectable="0" parent="CMIFHoFZZppcYvuTfOI5-79">
          <mxGeometry x="0.063" y="-1" relative="1" as="geometry">
            <mxPoint as="offset" />
          </mxGeometry>
        </mxCell>
        <mxCell id="CMIFHoFZZppcYvuTfOI5-83" value="" style="fontSize=12;html=1;endArrow=ERzeroToMany;startArrow=ERzeroToOne;rounded=0;entryX=0.5;entryY=0;entryDx=0;entryDy=0;exitX=0.5;exitY=1;exitDx=0;exitDy=0;exitPerimeter=0;" edge="1" parent="1" source="CMIFHoFZZppcYvuTfOI5-78" target="CMIFHoFZZppcYvuTfOI5-11">
          <mxGeometry width="100" height="100" relative="1" as="geometry">
            <mxPoint x="550" y="770" as="sourcePoint" />
            <mxPoint x="650" y="670" as="targetPoint" />
          </mxGeometry>
        </mxCell>
        <mxCell id="CMIFHoFZZppcYvuTfOI5-84" value="1 a N" style="edgeLabel;html=1;align=center;verticalAlign=middle;resizable=0;points=[];" vertex="1" connectable="0" parent="CMIFHoFZZppcYvuTfOI5-83">
          <mxGeometry x="-0.1667" y="4" relative="1" as="geometry">
            <mxPoint as="offset" />
          </mxGeometry>
        </mxCell>
        <mxCell id="CMIFHoFZZppcYvuTfOI5-85" value="SERVICIO POSTVENTA" style="rounded=0;whiteSpace=wrap;html=1;" vertex="1" parent="1">
          <mxGeometry x="-110" y="630" width="120" height="60" as="geometry" />
        </mxCell>
        <mxCell id="CMIFHoFZZppcYvuTfOI5-86" value="MONITOREO DE EQUIPOS" style="rounded=0;whiteSpace=wrap;html=1;" vertex="1" parent="1">
          <mxGeometry x="750" y="1090" width="120" height="60" as="geometry" />
        </mxCell>
        <mxCell id="CMIFHoFZZppcYvuTfOI5-88" value="POSEEN" style="strokeWidth=2;html=1;shape=mxgraph.flowchart.decision;whiteSpace=wrap;" vertex="1" parent="1">
          <mxGeometry x="770" y="890" width="100" height="100" as="geometry" />
        </mxCell>
        <mxCell id="CMIFHoFZZppcYvuTfOI5-90" value="" style="fontSize=12;html=1;endArrow=ERzeroToMany;startArrow=ERzeroToOne;rounded=0;entryX=0;entryY=0.5;entryDx=0;entryDy=0;entryPerimeter=0;" edge="1" parent="1" target="CMIFHoFZZppcYvuTfOI5-88">
          <mxGeometry width="100" height="100" relative="1" as="geometry">
            <mxPoint x="620" y="930" as="sourcePoint" />
            <mxPoint x="720" y="830" as="targetPoint" />
          </mxGeometry>
        </mxCell>
        <mxCell id="CMIFHoFZZppcYvuTfOI5-91" value="1 a N" style="edgeLabel;html=1;align=center;verticalAlign=middle;resizable=0;points=[];" vertex="1" connectable="0" parent="CMIFHoFZZppcYvuTfOI5-90">
          <mxGeometry x="-0.2035" y="4" relative="1" as="geometry">
            <mxPoint as="offset" />
          </mxGeometry>
        </mxCell>
        <mxCell id="CMIFHoFZZppcYvuTfOI5-92" value="1 a N" style="fontSize=12;html=1;endArrow=ERzeroToMany;startArrow=ERzeroToOne;rounded=0;entryX=0.5;entryY=0;entryDx=0;entryDy=0;exitX=0.5;exitY=1;exitDx=0;exitDy=0;exitPerimeter=0;" edge="1" parent="1" source="CMIFHoFZZppcYvuTfOI5-88" target="CMIFHoFZZppcYvuTfOI5-86">
          <mxGeometry width="100" height="100" relative="1" as="geometry">
            <mxPoint x="810" y="990" as="sourcePoint" />
            <mxPoint x="910" y="890" as="targetPoint" />
          </mxGeometry>
        </mxCell>
        <mxCell id="CMIFHoFZZppcYvuTfOI5-93" value="RECIBEN" style="strokeWidth=2;html=1;shape=mxgraph.flowchart.decision;whiteSpace=wrap;" vertex="1" parent="1">
          <mxGeometry x="-90" y="360" width="100" height="100" as="geometry" />
        </mxCell>
        <mxCell id="CMIFHoFZZppcYvuTfOI5-95" value="" style="fontSize=12;html=1;endArrow=ERzeroToMany;startArrow=ERzeroToOne;rounded=0;entryX=0.5;entryY=0;entryDx=0;entryDy=0;entryPerimeter=0;" edge="1" parent="1" target="CMIFHoFZZppcYvuTfOI5-93">
          <mxGeometry width="100" height="100" relative="1" as="geometry">
            <mxPoint x="-30" y="230" as="sourcePoint" />
            <mxPoint x="70" y="130" as="targetPoint" />
          </mxGeometry>
        </mxCell>
        <mxCell id="CMIFHoFZZppcYvuTfOI5-96" value="1 a N" style="edgeLabel;html=1;align=center;verticalAlign=middle;resizable=0;points=[];" vertex="1" connectable="0" parent="CMIFHoFZZppcYvuTfOI5-95">
          <mxGeometry x="0.2141" y="1" relative="1" as="geometry">
            <mxPoint as="offset" />
          </mxGeometry>
        </mxCell>
        <mxCell id="CMIFHoFZZppcYvuTfOI5-97" value="" style="fontSize=12;html=1;endArrow=ERzeroToMany;startArrow=ERzeroToOne;rounded=0;entryX=0.5;entryY=0;entryDx=0;entryDy=0;" edge="1" parent="1" source="CMIFHoFZZppcYvuTfOI5-93" target="CMIFHoFZZppcYvuTfOI5-85">
          <mxGeometry width="100" height="100" relative="1" as="geometry">
            <mxPoint x="-50" y="460" as="sourcePoint" />
            <mxPoint x="50" y="360" as="targetPoint" />
          </mxGeometry>
        </mxCell>
        <mxCell id="CMIFHoFZZppcYvuTfOI5-98" value="1 a N" style="edgeLabel;html=1;align=center;verticalAlign=middle;resizable=0;points=[];" vertex="1" connectable="0" parent="CMIFHoFZZppcYvuTfOI5-97">
          <mxGeometry x="-0.2118" y="-2" relative="1" as="geometry">
            <mxPoint as="offset" />
          </mxGeometry>
        </mxCell>
        <mxCell id="CMIFHoFZZppcYvuTfOI5-99" value="ESTAN CONFORMADOS&amp;nbsp;&lt;div&gt;POR&lt;/div&gt;" style="strokeWidth=2;html=1;shape=mxgraph.flowchart.decision;whiteSpace=wrap;" vertex="1" parent="1">
          <mxGeometry x="840" y="560" width="120" height="125" as="geometry" />
        </mxCell>
        <mxCell id="CMIFHoFZZppcYvuTfOI5-100" value="1 a N" style="fontSize=12;html=1;endArrow=ERzeroToMany;startArrow=ERzeroToOne;rounded=0;exitX=0.108;exitY=0.05;exitDx=0;exitDy=0;exitPerimeter=0;entryX=1;entryY=0.5;entryDx=0;entryDy=0;entryPerimeter=0;" edge="1" parent="1" source="CMIFHoFZZppcYvuTfOI5-9" target="CMIFHoFZZppcYvuTfOI5-99">
          <mxGeometry width="100" height="100" relative="1" as="geometry">
            <mxPoint x="1010" y="1130" as="sourcePoint" />
            <mxPoint x="910" y="740" as="targetPoint" />
            <Array as="points">
              <mxPoint x="940" y="940" />
              <mxPoint x="960" y="700" />
            </Array>
          </mxGeometry>
        </mxCell>
        <mxCell id="CMIFHoFZZppcYvuTfOI5-101" value="" style="fontSize=12;html=1;endArrow=ERzeroToMany;startArrow=ERzeroToOne;rounded=0;entryX=1;entryY=0;entryDx=0;entryDy=0;exitX=0.07;exitY=0.48;exitDx=0;exitDy=0;exitPerimeter=0;" edge="1" parent="1" source="CMIFHoFZZppcYvuTfOI5-99" target="CMIFHoFZZppcYvuTfOI5-11">
          <mxGeometry width="100" height="100" relative="1" as="geometry">
            <mxPoint x="770" y="740" as="sourcePoint" />
            <mxPoint x="870" y="640" as="targetPoint" />
            <Array as="points">
              <mxPoint x="810" y="650" />
            </Array>
          </mxGeometry>
        </mxCell>
        <mxCell id="CMIFHoFZZppcYvuTfOI5-102" value="1 a N" style="edgeLabel;html=1;align=center;verticalAlign=middle;resizable=0;points=[];" vertex="1" connectable="0" parent="CMIFHoFZZppcYvuTfOI5-101">
          <mxGeometry x="-0.1489" y="-2" relative="1" as="geometry">
            <mxPoint y="1" as="offset" />
          </mxGeometry>
        </mxCell>
        <mxCell id="CMIFHoFZZppcYvuTfOI5-103" value="" style="fontSize=12;html=1;endArrow=ERzeroToMany;startArrow=ERzeroToOne;rounded=0;entryX=1;entryY=0.5;entryDx=0;entryDy=0;exitX=0.5;exitY=1;exitDx=0;exitDy=0;exitPerimeter=0;" edge="1" parent="1" source="CMIFHoFZZppcYvuTfOI5-73" target="CMIFHoFZZppcYvuTfOI5-9">
          <mxGeometry width="100" height="100" relative="1" as="geometry">
            <mxPoint x="1080" y="980" as="sourcePoint" />
            <mxPoint x="1180" y="880" as="targetPoint" />
          </mxGeometry>
        </mxCell>
        <mxCell id="CMIFHoFZZppcYvuTfOI5-104" value="1 a N" style="edgeLabel;html=1;align=center;verticalAlign=middle;resizable=0;points=[];" vertex="1" connectable="0" parent="CMIFHoFZZppcYvuTfOI5-103">
          <mxGeometry x="-0.0846" y="-1" relative="1" as="geometry">
            <mxPoint as="offset" />
          </mxGeometry>
        </mxCell>
      </root>
    </mxGraphModel>
  </diagram>
</mxfile>
